<svg xmlns="http://www.w3.org/2000/svg" width="16" height="16" viewBox="0 0 16 16"><g><g><path fill="#ccc" d="M1-.007h5c.552 0 1 .45 1 1.002v4.998a1 1 0 0 1-1 1.001H1a1 1 0 0 1-1-1.001V.995C0 .443.448-.007 1-.007zm4 2H2v3h3zm1 7a1 1 0 0 1 1 .999v5.003c0 .552-.448 1.002-1 1.002H1c-.552 0-1-.45-1-1.002V9.992a1 1 0 0 1 1-.998zm-1 2H2v3.001h3zm10-2a1 1 0 0 1 1 .999v5.003c0 .552-.448 1.002-1 1.002h-5c-.552 0-1-.45-1-1.002V9.992a1 1 0 0 1 1-.998zm-1 2h-3v3.001h3zm1-11c.552 0 1 .45 1 1.002v4.998a1 1 0 0 1-1 1.001h-5a1 1 0 0 1-1-1.001V.995c0-.552.448-1.002 1-1.002zm-1 2h-3v3h3z"/></g></g></svg>