<svg xmlns="http://www.w3.org/2000/svg" width="16" height="14" viewBox="0 0 16 14"><g><g><g><path fill="#6dbad4" d="M8.5-.005h7c.276 0 .5.223.5.497v1.002a.5.5 0 0 1-.5.5h-7a.5.5 0 0 1-.5-.5V.492c0-.274.223-.497.5-.497zm0 2.999h7a.5.5 0 0 1 .5.501v.999a.5.5 0 0 1-.5.499h-7a.499.499 0 0 1-.5-.5v-.998a.5.5 0 0 1 .5-.501zM1-.005h4c.553 0 1 .447 1 .997v4.001a1 1 0 0 1-1 1.001H1a1 1 0 0 1-1-1.001v-4c0-.551.447-.998 1-.998zm3 1.999H2v2h2zm-3 6h4a1 1 0 0 1 1 .998v4.002c0 .552-.447 1.001-1 1.001H1c-.553 0-1-.449-1-1V8.991a1 1 0 0 1 1-.998zm3 2H2v2h2zm4-.5v-1a.5.5 0 0 1 .5-.5h7a.5.5 0 0 1 .5.5v1a.5.5 0 0 1-.5.5h-7a.5.5 0 0 1-.5-.5zm0 3v-.998a.5.5 0 0 1 .5-.502h7a.5.5 0 0 1 .5.502v.999a.5.5 0 0 1-.5.5h-7a.5.5 0 0 1-.5-.5z"/></g></g></g></svg>